<svg xmlns="http://www.w3.org/2000/svg" viewBox="0 0 24 24" fill="none" stroke="currentColor" stroke-width="1.5" stroke-linecap="round" stroke-linejoin="round">

<path d="M7 20H17"/>
<path d="M9.45312 5.425L12.0011 5L18.0011 6"/>
<path d="M12 3V8M12 12V20"/>
<path d="M9 12L6 6L3 12C3 12.7956 3.31607 13.5587 3.87868 14.1213C4.44129 14.6839 5.20435 15 6 15C6.79565 15 7.55871 14.6839 8.12132 14.1213C8.68393 13.5587 9 12.7956 9 12Z"/>
<path d="M18.8742 14.871C19.4897 14.6838 20.0288 14.3036 20.4118 13.7867C20.7947 13.2697 21.0014 12.6434 21.0012 12L18.0012 6L15.3242 11.355"/>
<path d="M3 3L21 21"/>


</svg>